<svg xmlns="http://www.w3.org/2000/svg" xmlns:xlink="http://www.w3.org/1999/xlink" width="264px" height="280px" viewBox="0 0 264 280" version="1.1">
    <title id="circle_Title">Avataaar/Circle</title>
    <desc>Created with python_avatars</desc>
    <defs>
        <circle id="circle_path-1" cx="120" cy="120" r="120" />
        <path d="M-3.19744231e-14,160 L-3.19744231e-14,-1.42108547e-14 L264,-1.42108547e-14 L264,160 L252,160 C252,226.27417 198.27417,280 132,280 C65.72583,280 12,226.27417 12,160 L12,160 L-3.19744231e-14,160 Z" id="circle_path-3" />
        <path d="M100,0 C130.927946,-5.68137151e-15 156,25.072054 156,56 L156.000809,62.1660527 C161.675838,63.1185422 166,68.05429 166,74 L166,88 C166,94.0524166 161.519235,99.0582945 155.693975,99.8813638 C153.627928,119.686472 141.237929,136.421678 124.001014,144.610469 L124,163 L128,163 C167.764502,163 200,195.235498 200,235 L200,244 L0,244 L0,235 C-4.86974701e-15,195.235498 32.235498,163 72,163 L76,163 L75.9999836,144.610943 C58.7625487,136.422324 46.3721119,119.686854 44.3051107,99.8809698 C38.480765,99.0582945 34,94.0524166 34,88 L34,74 C34,68.053942 38.3246685,63.1179645 44.0001873,62.1658855 L44,56 C44,25.072054 69.072054,5.68137151e-15 100,0 Z" id="circle_path-5" />
        <path d="M83,36.3476251 C83,52.6289957 105.161905,65.8276544 132.5,65.8276544 C159.838095,65.8276544 182,52.6289957 182,36.3476251 C182,34.9853134 181.844841,33.6445843 181.544472,32.3313638 C210.784239,41.4879251 232,68.792221 232,101.051724 L232,110 L32,110 L32,101.051724 C32,68.3970853 53.7386736,40.8197864 83.5337207,32.0021267 C83.1821692,33.4207025 83,34.871494 83,36.3476251 Z" id="circle_path-7" />
        <rect id="circle_path-9" x="0" y="0" width="264" height="280" />
        <path d="M74,0 C114.869071,0 148,33.1309285 148,74 L148,84.1482318 L148,197.608051 C135.525121,187.236892 119.490913,181 102,181 L102,181 L98,181 L98,162.610951 C115.530782,154.282984 128.048193,137.114792 129.791419,116.867187 C135.569129,116.002364 140,111.018625 140,105 L140,105 L140,92 C140,87.3536213 137.359271,83.3240177 133.496777,81.3301515 C132.723933,81.0500337 131.951808,80.748163 131.180891,80.4262497 C130.794819,80.3202581 130.400778,80.2331546 130,80.1659169 L130,80.1659169 L130.000458,79.9172528 C117.224481,74.2339715 104.877985,63.0706967 96.1104311,47.8848473 C93.1752556,42.8009742 90.8310687,37.5951441 89.0661426,32.3970356 C80.4313947,42.9409152 67.7445474,53.6023901 52.3415164,62.4953343 C42.777598,68.0170651 33.1467898,72.2910056 24,75.2659587 L24.0003852,137.246608 C29.6019576,148.318362 38.7728825,157.277529 50,162.610951 L50,162.610951 L50,181 L46,181 C38.3273639,181 30.9350359,182.200142 24.0004995,184.422941 L24,230 C24,244.105888 13.5691766,255.775526 0,257.716445 L0,74 C0,33.1309285 33.1309285,0 74,0 Z" id="circle_path-11" />
    </defs>
    <g id="circle_Avataaar/Circle" stroke="none" stroke-width="1" fill="none" fill-rule="evenodd">
        <g id="circle_Circle" transform="translate(12.000000, 40.000000)">
            <mask id="circle_mask-2" fill="white">
                <use xlink:href="#circle_path-1" />
            </mask>
            <use id="circle_Background-Color" fill="#262E33" xlink:href="#circle_path-1" />
            <g id="circle_Fabric-Color" mask="url(#circle_mask-2)" fill="">
                <rect id="circle_ðŸ–Color" x="0" y="0" width="240" height="240" />
            </g>
        </g>
        <mask id="circle_mask-4" fill="white">
            <use xlink:href="#circle_path-3" />
        </mask>
        <g id="circle_Mask" />
        <g id="circle_Avataaar" mask="url(#circle_mask-4)">
            <g id="circle_Body" transform="translate(32.000000, 36.000000)">
                <mask id="circle_mask-6" fill="white">
                    <use xlink:href="#circle_path-5" />
                </mask>
                <use fill="#D0C6AC" xlink:href="#circle_path-5" />
                <g id="circle_Skin-Color" mask="url(#circle_mask-6)" fill="#614335">
                    <g transform="translate(-32.000000, 0.000000)" id="circle_Color">
                        <rect x="0" y="0" width="264" height="244" />
                    </g>
                </g>
                <path d="M44,94 C44,124.927946 69.072054,150 100,150 C130.927946,150 156,124.927946 156,94 L156,94 L156,102 C156,132.927946 130.927946,158 100,158 C69.072054,158 44,132.927946 44,102 Z" id="circle_Neck-Shadow" fill-opacity="0.100000001" fill="#000000" mask="url(#circle_mask-6)" />
            </g>
            <g id="circle_Clothing" transform="translate(0.000000, 170.000000)">
                
            <defs>
        <path d="M160,29.0517235 C199.764502,29.0517235 232,61.2872215 232,101.051724 L232,110 L32,110 L32,101.051724 C32,61.2872215 64.235498,29.0517235 104,29.0517235 L105.192363,29.0520252 C105.065349,30.0355191 105,31.0365551 105,32.0517235 C105,45.8588423 117.088312,57.0517235 132,57.0517235 C146.911688,57.0517235 159,45.8588423 159,32.0517235 C159,31.0365551 158.934651,30.0355191 158.807637,29.0520252 L160,29.0517235 Z" id="collar_sweater_path-1" />
    </defs>
    <g id="collar_sweater_Clothing/Collar-+-Sweater" stroke="none" stroke-width="1" fill="none" fill-rule="evenodd">
        <mask id="collar_sweater_mask-2" fill="white">
            <use xlink:href="#collar_sweater_path-1" />
        </mask>
        <use id="collar_sweater_Clothes" fill="#E6E6E6" xlink:href="#collar_sweater_path-1" />
        <g id="collar_sweater_Fabric-Color" mask="url(#collar_sweater_mask-2)" fill="#262E33">
            <rect id="collar_sweater_ðŸ–Color" x="0" y="0" width="264" height="110" />
        </g>
        <path d="M118.07795,50.9956082 L118,51.0567821 L119,54.207887 L114.421,53.8754994 L108.308702,58.6917545 C101.361717,54.0802103 97,47.4262523 97,40.027915 C97,32.7399202 101.232581,26.1742662 107.999601,21.5717708 L108,36.8768102 C108,42.7004148 111.977587,47.8531513 118.07795,50.9956082 Z M166,40.027915 C166,47.2334229 161.862687,53.7328485 155.229194,58.3270307 L149.58,53.8754994 L145,54.207887 L146,51.0567821 L146.015,51.0664994 L145.923049,50.9950934 C152.022847,47.8525885 156,42.7000968 156,36.8768102 L156.000973,22.2802074 C162.182048,26.8358435 166,33.1060895 166,40.027915 Z" id="collar_sweater_Collar" fill="#F2F2F2" />
    </g>
</g>
            <g id="circle_Face" transform="translate(76.000000, 82.000000)" fill="#000000">
                <g id="circle_Mouth" transform="translate(2.000000, 52.000000)">    
                    
                <defs>
        <path d="M29,15.6086957 C30.410031,25.2313711 41.062182,33 54,33 C66.9681454,33 77.6461342,25.183301 79,14.7391304 C79.1012093,14.3397326 78.775269,13 76.826087,13 C56.838426,13 41.7395748,13 31.173913,13 C29.3833142,13 28.870211,14.2404669 29,15.6086957 Z" id="tongue_path-1" />
    </defs>
    <g id="tongue_Mouth/Tongue" stroke="none" stroke-width="1" fill="none" fill-rule="evenodd">
        <mask id="tongue_mask-2" fill="white">
            <use xlink:href="#tongue_path-1" />
        </mask>
        <use id="tongue_Mouth" fill-opacity="0.699999988" fill="#000000" xlink:href="#tongue_path-1" />
        <path d="M44,2 L65,2 C67.7614237,2 70,4.23857625 70,7 L70,13 C70,15.7614237 67.7614237,18 65,18 L44,18 C41.2385763,18 39,15.7614237 39,13 L39,7 C39,4.23857625 41.2385763,2 44,2 Z" id="tongue_Teeth" fill="#FFFFFF" mask="url(#tongue_mask-2)" />
        <path d="M59.5,20 C63.0898509,20 66,21.5670034 66,23.5 C66,23.5829439 65.9946418,23.6652139 65.9841015,23.7467151 C65.9945755,23.8293228 66,23.9140279 66,24 L66,33 C66,39.0751322 61.0751322,44 55,44 L54,44 C47.9248678,44 43,39.0751322 43,33 L43,24 C43,23.9140279 43.0054245,23.8293228 43.0159499,23.7462082 C43.0053582,23.6652139 43,23.5829439 43,23.5 C43,21.5670034 45.9101491,20 49.5,20 C51.5110191,20 53.3087347,20.4917558 54.5010337,21.2641296 C55.6909749,20.4918353 57.4888185,20 59.5,20 Z" id="tongue_Tongue" fill="#FF4F6D" />
    </g>
</g>
                <g id="circle_Nose" transform="translate(28.000000, 40.000000)" fill-opacity="0.16">
                    
                <g id="default_Nose/Default" stroke="none" stroke-width="1" fill="none" fill-rule="evenodd" fill-opacity="0.16">
        <path d="M16,8 C16,12.418278 21.372583,16 28,16 L28,16 C34.627417,16 40,12.418278 40,8" id="default_Nose" fill="#000000" />
    </g>
</g>
                <g id="circle_Eyes" transform="translate(0.000000, 8.000000)">
                    
                <g id="eye_roll_Eyes/Eye-Roll-ðŸ™„" stroke="none" stroke-width="1" fill="none" fill-rule="evenodd">
        <circle id="eye_roll_Eyeball" fill="#FFFFFF" cx="30" cy="22" r="14" />
        <circle id="eye_roll_The-white-stuff" fill="#FFFFFF" cx="82" cy="22" r="14" />
        <circle id="eye_roll_Eye" fill-opacity="0.699999988" fill="#000000" cx="30" cy="14" r="6" />
        <circle id="eye_roll_Eye" fill-opacity="0.699999988" fill="#000000" cx="82" cy="14" r="6" />
    </g>
</g>
                <g id="circle_Eyebrow" fill-opacity="0.599999964">
                    
                <g id="angry_natural_Eyebrow/Natural/Angry-Natural" stroke="none" stroke-width="1" fill="none" fill-rule="evenodd" fill-opacity="0.599999964">
        <path d="M44.8565785,12.2282877 C44.8578785,12.2192877 44.8578785,12.2192877 44.8565785,12.2282877 M17.5862288,7.89238094 C15.2441598,8.3302947 13.0866155,9.78806858 12.1523766,12.0987479 C11.8009169,12.967391 11.3917103,14.9243181 11.7083227,15.8073302 C11.8284629,16.14295 12.0332321,16.1008692 12.9555234,16.0430509 C14.643791,15.9369937 16.9330912,13.6622369 18.7484684,13.2557982 C21.2753939,12.6899315 23.9825295,13.1148447 26.4961798,13.6882381 C30.8109365,14.6725177 36.4854008,17.7875215 40.9461842,16.1699775 C41.2783949,16.0495512 45.6210294,12.9225732 44.3685187,12.2769925 C43.9238011,11.9068186 41.1370145,12.0854053 40.6216067,11.9988489 C38.2277647,11.5971998 35.7297127,10.9345131 33.373373,10.3265657 C28.2329017,9.00016592 22.9666484,6.88073171 17.5862288,7.89238094" id="angry_natural_Eyebrows-The-Web" fill="#000000" transform="translate(28.094701, 12.127505) rotate(17.000000) translate(-28.094701, -12.127505) " />
        <path d="M100.918293,12.2094196 C100.919593,12.2004196 100.919593,12.2004196 100.918293,12.2094196 M73.5862288,7.89238094 C71.2441598,8.3302947 69.0866155,9.78806858 68.1523766,12.0987479 C67.8009169,12.967391 67.3917103,14.9243181 67.7083227,15.8073302 C67.8284629,16.14295 68.0332321,16.1008692 68.9555234,16.0430509 C70.643791,15.9369937 72.9330912,13.6622369 74.7484684,13.2557982 C77.2753939,12.6899315 79.9825295,13.1148447 82.4961798,13.6882381 C86.8109365,14.6725177 92.4854008,17.7875215 96.9461842,16.1699775 C97.2783949,16.0495512 101.621029,12.9225732 100.368519,12.2769925 C99.9238011,11.9068186 97.1370145,12.0854053 96.6216067,11.9988489 C94.2277647,11.5971998 91.7297127,10.9345131 89.373373,10.3265657 C84.2329017,9.00016592 78.9666484,6.88073171 73.5862288,7.89238094" id="angry_natural_Eyebrows-The-Web" fill="#000000" transform="translate(84.094701, 12.127505) scale(-1, 1) rotate(17.000000) translate(-84.094701, -12.127505) " />
    </g>
</g>
            </g>
            <g id="circle_Top">
                
            <defs>
        <path d="M108.58669,0.197751335 C165.481911,-0.0750473139 170.293437,47.0528435 173.617944,55.2249863 C177.487944,64.7382958 187.127368,80.8793698 189.520542,90.8868298 C190.606132,95.4261763 191.213967,99.9353218 190.685858,104.583322 C190.56477,105.649382 189.609259,108.810939 190.209501,109.441341 C191.067703,110.342511 193.906862,111.257566 195.115337,111.95809 C197.334273,113.244582 199.588776,114.501568 201.725588,115.887863 C207.291411,119.498616 210.864687,125.12728 213.117591,130.733555 C215.834064,137.49302 215.39827,144.528634 212.051783,151.200622 C209.921164,155.448546 206.599454,159.671476 202.341615,162.571291 C201.039826,163.457881 201.247433,163.105189 201.094375,164.445141 C201.000862,165.263344 201.10077,166.193153 201.086383,167.009968 C201.062205,168.361722 200.99307,169.708269 200.870584,171.057073 C200.281132,177.550111 198.998525,184.244662 196.758409,190.497133 C195.343925,194.445304 193.590156,198.418295 190.225486,201.476579 C187.379733,204.063449 183.288539,205.899634 179.372782,206.996069 C178.016643,207.37549 178.036425,207.778517 177.957698,208.171998 C177.851996,208.701383 177.986471,211.23167 178.099366,211.916746 C178.51478,214.440611 179.468692,217.139607 180.201011,219.605673 C182.187563,226.295538 185.106048,232.88022 186.363678,239.728032 C186.967717,243.016815 186.917963,246.458686 186.146081,249.741914 C185.526058,252.378599 184.398107,254.962171 182.931671,257.34666 C181.25603,260.071171 176.3432,264.37915 172.244213,262.523872 C177.763079,259.889444 178.003455,254.264772 176.119408,252.691023 C174.188404,251.078221 171.542066,250.985014 168.977452,250.993519 C166.847633,251.000636 164.742591,251.164137 162.630756,251.429524 C158.007057,252.010459 152.696796,253.463231 148.074296,252.382591 C145.444343,251.76781 142.980035,250.546232 140.607243,249.428275 C140.397016,249.329199 139.180651,248.750818 137.494548,247.559145 C119.820767,233.59206 123.619748,210.506996 138.538625,183.140731 C137.162816,183.055154 136.616818,183.008215 135.361194,183.000986 L135,183 L130.999003,182.999751 L131.000016,164.610943 C149.730391,155.713105 162.737808,136.723813 162.996083,114.669251 L163,114 L163,76 C163,74.5255755 162.943019,73.0644598 162.831138,71.6187347 C159.483052,69.737337 154.760374,67.9916227 152.257345,65.7132858 C149.920119,63.586016 147.100342,63.9256202 145.980784,61.2323702 L145.980784,61.2323702 L143.434153,62.138079 C141.699367,61.6008734 132.910143,58.601117 131.456495,58.0098503 L131.456495,58.0098503 L130.907605,56.9328981 L129.240756,57.5714137 C127.460212,57.5012269 120.119841,57.2427023 120.119841,57.2427023 C117.488488,57.2113208 106.391211,57.460454 103.834989,57.668872 C103.834989,57.668872 102.612526,56.7530625 100.896323,54.9898699 L100.896323,54.9898699 L99.5663601,58.212708 C99.5663601,58.212708 87.6456492,60.0042337 85.4876566,60.1702128 L85.4876566,60.1702128 L84.4252449,58.215348 L81.6887904,61.1941723 C77.7980098,62.0907786 67.8552588,64.0189378 63.3986046,65.2045441 C59.3654441,66.2777066 55.4087684,67.4703014 51.4670366,68.7333895 C51.1976053,70.8139866 51.0422743,72.9293087 51.0075024,75.0739376 L51,76 L51,114 C51,136.338769 64.0799541,155.62255 82.9989864,164.610469 L82.9990032,182.999751 L79,183 C73.6934072,183 68.5208988,183.574083 63.5411927,184.663531 L62.6097716,184.873828 C62.5818694,184.915706 62.5537619,184.957714 62.5254511,184.99985 L62.4851963,185.000837 L62.2631472,185.3855 C58.4343944,190.948562 51.297509,198.555535 45.6103845,203.336606 C45.6756339,203.415917 45.7413656,203.495007 45.8075795,203.573876 C45.3891237,204.001501 45.0375185,204.436272 44.8227444,204.862039 C43.9381673,206.615432 44.5967546,209.659309 45.0141664,211.558847 C45.3084926,212.898625 45.8146217,214.188415 46.4820009,215.419366 C49.679027,221.3155 57.6284322,224.074724 66.0000446,222.74779 C63.4709972,224.871405 58.4512667,226.570818 55.0466338,226.691448 C50.4191385,226.855644 44.7616013,225.068753 40.7853002,223.10864 C41.3891385,226.708805 43.4722007,228.722725 45.4085994,231.706547 C40.636039,231.460774 36.8611506,226.167444 35.2618383,224.05216 C34.2369916,222.697108 33.2860762,221.204589 32.7263968,219.653578 C30.5294405,224.161856 29.2931905,236.290327 30.3833764,239.685161 C28.2831301,238.743202 26.3249517,237.73442 24.3409972,236.576369 C7.40435223,226.688671 5.77766543,209.912373 6.0799842,204.016065 C6.39748885,197.82226 8.54189405,192.412639 11.0939201,186.603116 C12.7411877,182.853334 14.6406208,179.068318 15.5599656,175.128304 C16.0263318,173.129312 15.6946403,172.732013 14.4577909,171.110359 C12.4084972,168.423513 10.0566849,165.919435 7.94045353,163.272162 C5.52490056,160.250502 3.46621561,157.104393 2.0289526,153.633016 C-0.511883829,147.495621 -0.596804833,140.450807 1.3853513,134.125611 C4.54481227,124.04369 17.099033,113.95809 22.602684,107.035643 C16.9074766,89.1763214 25.3512665,69.9121239 33.7159879,59.7736698 C41.4185991,50.4377258 51.691468,0.4729297 108.58669,0.197751335 Z" id="curvy_path-1" />
    </defs>
    <g id="curvy_Top/Long-Hair/Curvy" stroke="none" stroke-width="1" fill="none" fill-rule="evenodd">
        <path d="M100.899906,42.4648024 C91.1016204,48.4721303 82.3855283,56.3273858 76.5871222,65.36024 C73.8252914,69.662826 71.5532049,74.1995784 69.4361743,78.7575668 C68.3739624,81.0447336 67.4048638,83.3600237 66.475928,85.6893613 C65.8894735,87.1594817 64.9889112,88.7449062 65.8359233,90.2878445 C66.3526427,89.9857996 66.5492598,90.0943892 66.224362,90.6353417 C68.9162579,91.3693254 72.6583769,89.3003017 74.9906073,88.5362205 C79.7539763,86.9753339 84.5203425,85.5025753 89.3986046,84.2045441 C93.8552588,83.0189378 103.79801,81.0907786 107.68879,80.1941723 L110.425245,77.215348 L111.487657,79.1702128 C113.645649,79.0042337 125.56636,77.212708 125.56636,77.212708 L126.896323,73.9898699 C128.612526,75.7530625 129.834989,76.668872 129.834989,76.668872 C132.391211,76.460454 143.488488,76.2113208 146.119841,76.2427023 C146.119841,76.2427023 153.460212,76.5012269 155.240756,76.5714137 L156.907605,75.9328981 L157.456495,77.0098503 C158.910143,77.601117 167.699367,80.6008734 169.434153,81.138079 L171.980784,80.2323702 C173.100342,82.9256202 175.920119,82.586016 178.257345,84.7132858 C181.34867,87.5271086 187.825645,89.5285179 190.917768,91.9756241 C192.024938,92.8519441 193.059576,93.7675012 194.100208,94.7015404 C195.255933,95.7385867 195.085291,95.890424 195.460742,97.0802141 C195.573237,97.4361731 196.715775,99.2788807 197.202722,99.4296139 C198.935909,99.9660566 187.048767,68.9435732 183.785603,64.9771662 C180.417736,60.8830307 158.574915,33.3231248 129.612057,34.2254634" id="curvy_Top-Shadow" fill-opacity="0.16" fill="#000000" />
        <g id="curvy_Hair" transform="translate(25.000000, 16.000000)">
            <mask id="curvy_mask-2" fill="white">
                <use xlink:href="#curvy_path-1" />
            </mask>
            <use id="curvy_Hair-Mask" fill="#361A0A" xlink:href="#curvy_path-1" />
            <g id="curvy_Hair-Color" mask="url(#curvy_mask-2)" fill="#A55728">
                <g transform="translate(-25.000000, -16.000000)" id="curvy_Color">
                    <rect x="0" y="0" width="264" height="280" />
                </g>
            </g>
            <path d="M62.6794556,184.462132 C69.755442,174.755405 62.148959,147.786913 56.1278159,137.800593 C72.9649824,130.137708 106.213574,131.553467 155.87359,142.047871 C151.079203,150.900348 149.123448,158.803527 150.006324,165.757409 C145.469118,171.332534 141.720304,177.127222 138.759883,183.141474 L103.888915,191.746789 C81.8528509,194.400378 68.1163643,191.97216 62.6794556,184.462132 Z" id="curvy_Shadow" fill-opacity="0.24" fill="#000000" mask="url(#curvy_mask-2)" />
        </g>
        <path d="M179.90773,217.738557 C179.246345,218.128392 179.377224,220.111764 179.361438,220.669267 C179.298097,222.900321 179.317079,225.185182 179.458947,227.410508 C179.711912,231.383499 182.010574,234.84533 185.39043,237.491388 C188.973097,240.296087 193.769036,241.572686 196.369816,245.319691 C197.637437,247.145462 198.312809,249.270812 198.20431,251.417686 C198.148362,252.524014 197.870221,253.636069 197.5695,254.712196 C197.371684,255.420184 196.66734,256.580144 196.667939,257.270775 C196.69911,253.384221 196.751661,248.859281 194.031592,245.598095 C191.300932,242.324066 186.539161,241.170701 183.203065,238.482813 C179.924714,235.841442 177.437828,232.389157 176.877749,228.498264 C176.425569,225.354411 176.648562,219.871892 179.90773,217.738557 Z M177.093518,242.765695 C177.652578,243.265951 179.612952,243.845434 180.213805,244.182606 C181.67045,245.000116 183.07914,245.92923 184.234665,247.059684 C186.55111,249.326146 188.044121,252.504886 188.151821,255.553623 C188.151821,254.833139 186.505553,253.096583 186.043183,252.481107 C185.275297,251.458613 184.407904,250.511969 183.524526,249.564283 C181.909628,247.831371 180.248086,246.130385 178.619897,244.40648 L177.093518,242.765695 Z M50.5604331,202.493815 C50.5610325,202.989874 51.376474,204.011501 51.5992667,204.528562 C52.1207816,205.73799 52.5455864,207.007473 52.7573894,208.289626 C53.1752007,210.818004 52.6269108,213.429521 51.6899823,215.850286 C49.7909489,220.757251 46.8161162,225.102895 43.0767946,229.15 C44.4121524,227.402335 44.9438578,224.56136 45.8833838,222.612182 C46.8478866,220.611106 47.8829238,218.6411 48.7335325,216.600624 C50.652947,211.995842 50.4835046,207.289696 50.5604331,202.493815 Z M60.1036574,224.846603 L60.1172574,225.346603 C60.0700574,225.224111 60.0710574,225.050581 60.1036574,224.846603 Z M38.6846803,168.851361 C40.0408188,170.567263 42.485145,171.915893 44.0009349,173.619818 C45.8995688,175.753674 47.3488206,178.199606 48.9033745,180.528033 C51.7405353,184.777866 55.450684,188.609052 57.877027,193.056233 C60.7067946,198.242644 61.9518364,203.862978 62.202803,209.595957 C62.3216924,212.307277 62.3152983,215.0606 61.9498383,217.764455 C61.7540204,219.211673 61.4399126,220.650211 61.0810465,222.075732 C60.944973,222.616747 60.2406283,224.002173 60.1037556,224.846586 C59.8140251,214.305575 61.5584024,203.763696 56.0767017,193.942823 C53.4811162,189.292219 49.4912277,185.327212 46.398105,180.924811 C43.6164926,176.966226 40.8998197,173.083838 38.6846803,168.851361 Z M44.170737,213.693866 C43.7551236,214.392828 44.3691524,216.160106 44.1663411,217.067177 C43.8338504,218.55553 42.9962296,219.998582 41.9174331,221.200893 C42.3180604,220.652936 42.1102537,218.018161 42.3222565,217.328919 C42.714092,216.055618 43.3920613,214.827097 44.170737,213.693866 Z M206.915546,209.342078 C206.033367,209.102206 203.92333,209.674289 202.995793,209.779298 C201.699199,209.926138 200.399608,210.077837 199.099817,210.196558 C197.506299,210.342009 195.898395,210.422718 194.298883,210.41942 C193.159543,210.41699 190.979371,209.87858 189.923153,210.197773 C192.611453,209.233424 195.584487,208.30431 198.505969,208.169273 C201.277391,208.042395 204.351332,208.458613 206.915546,209.342078 Z M214.881616,204.614097 C213.935896,203.408661 211.420436,202.290531 210.006351,201.476666 C208.253382,200.468058 206.346955,199.694288 204.314046,199.181739 C200.218656,198.149351 195.171151,197.522941 190.882541,197.765243 C191.914181,197.749796 193.615199,196.695886 194.722769,196.473197 C203.032039,194.811448 211.142494,198.162369 214.881616,204.614097 Z M49.8138875,146.658464 C49.8160855,148.56911 51.5706533,151.280256 52.1766896,153.126681 C53.0063178,155.654018 53.6655046,158.231689 54.9143429,160.634229 C57.039566,164.722991 60.873,167.876911 64.0792175,171.321558 C67.631513,175.137643 71.0245567,179.084252 73.5320242,183.498629 C74.6465874,185.460651 75.5723262,187.464851 76.1569823,189.60079 C76.4654954,190.727599 76.7138643,191.869508 76.9272658,193.013501 C76.9962017,193.382508 77.0093894,194.709963 77.1846264,195.283955 C74.9700864,190.992812 73.2798587,186.448779 70.6421125,182.34214 C68.0381348,178.288092 64.6948448,174.560527 61.1958996,171.061031 C57.5013364,167.36575 53.7855929,163.879099 51.8038364,159.214262 C50.0788411,155.153619 49.4126608,150.996124 49.8138875,146.658464 Z M56.4530516,171.817184 C56.6844363,172.409922 58.7059559,173.677148 59.2286696,174.179456 C60.2874847,175.196917 61.2164205,176.28259 62.0352588,177.454354 C62.9328239,178.738937 63.5914112,180.09017 64.1800637,181.504062 C64.6869921,182.721301 64.9105841,184.986375 65.7074428,186.0021 C63.1288415,182.856337 60.4739112,179.884838 58.6955655,176.312444 C58.0893295,175.089825 57.1480051,173.289222 56.4530516,171.817184 Z M202.227687,183.908269 C202.969797,184.089822 204.54713,185.083504 205.275252,185.072742 C202.345977,185.143906 199.703236,184.81829 196.883858,184.158729 C197.036117,184.200212 198.643022,183.702937 198.694974,183.695647 C199.910043,183.523987 201.052381,183.620492 202.227687,183.908269 Z M210.13633,181.81909 C209.657576,180.592826 207.111145,179.578489 205.959616,178.968568 C204.136711,178.002484 202.395531,176.832456 200.41897,176.096698 C200.238432,176.035765 198.684744,175.59584 198.16641,175.742396 L198.08868,175.773109 L198.311914,175.674731 C198.782886,175.46709 199.315099,175.247573 199.819453,175.141176 L200.068895,175.097983 C204.35311,174.529024 209.561066,178.239232 210.13633,181.81909 Z M210.618342,169.271033 C211.855791,170.494694 212.955568,171.900428 213.683091,173.404055 C214.193336,174.459145 214.226482,176.143521 214.825661,177.124605 L214.95968,177.319109 L214.537846,176.770712 C212.813593,174.602147 210.713075,172.789505 208.638584,170.859535 C207.075238,169.404855 203.950944,165.678852 201.196906,165.719988 C204.852905,165.202752 208.302496,166.981313 210.618342,169.271033 Z M78.6348573,169.428842 C78.8354573,169.667152 78.9812573,169.892618 79.0404573,170.094305 C78.9074573,169.871269 78.7708573,169.650142 78.6348573,169.428842 Z M54.7738936,104.200899 C54.4921557,104.935095 55.2326668,106.688314 55.3491585,107.497319 C55.5525692,108.91069 55.7349995,110.333608 55.8267142,111.757219 C56.0123415,114.639678 56.0109428,117.505994 56.409572,120.375261 C57.2661752,126.5406 58.7356083,132.465374 60.8662263,138.377476 C62.9277086,144.09848 65.285915,149.836145 68.678559,155.067858 C71.8402179,159.943234 75.6031176,164.4923 78.6348973,169.428772 C77.8378388,168.48126 76.1633964,167.329804 75.5207941,166.65115 C74.4643769,165.535276 73.4750971,164.385382 72.5369698,163.193485 C70.6143583,160.749982 68.9003527,158.193833 67.243494,155.609567 C63.9913192,150.536843 61.5529875,145.034363 59.4397533,139.530668 C55.2902133,128.722708 51.1268862,115.61687 54.7738936,104.200899 Z M226.113648,151.858014 C226.644354,152.52556 228.442481,153.157872 229.167807,153.791051 C230.371887,154.841663 231.178936,156.147595 231.842519,157.49987 C233.373295,160.619424 233.65823,164.217333 232.431571,167.500388 C232.634582,166.795698 232.030544,165.31585 231.860502,164.601614 C231.488248,163.038626 230.906389,161.56225 230.298355,160.059664 C229.118053,157.144401 228.163741,154.41208 226.113648,151.858014 Z M55.6897616,142.969154 C55.7992598,143.49177 56.6083072,144.395543 56.8630702,144.824778 C57.4766993,145.858902 58.0839345,146.89424 58.6508072,147.948671 C59.7481863,149.989667 60.6639345,152.099744 61.7731027,154.135533 C63.8106073,157.875421 66.402796,161.495374 68.8553146,165.041212 C67.4967783,163.309515 64.9739252,161.944396 63.4129772,160.279177 C61.9976938,158.769648 60.9019131,157.07822 59.9070386,155.339754 C57.6517365,151.39922 56.1697151,147.374505 55.6897616,142.969154 Z M212.950612,131.638511 C211.805877,132.313173 210.683921,134.851617 209.949604,135.906916 C208.84663,137.493162 207.668126,139.094161 206.735993,140.757819 C204.793001,144.225725 204.229725,148.375062 203.505599,152.127968 C203.498805,152.179518 203.485417,152.282271 203.464637,152.438483 C203.462638,150.913159 202.784469,149.237352 202.704144,147.668984 C202.592048,145.478545 202.906556,143.353715 203.787137,141.277137 C205.526519,137.175704 208.790083,134.069516 212.950612,131.638511 Z M202.419809,127.7355 C202.04236,128.392806 202.137271,129.766083 201.998401,130.481881 C201.761221,131.706583 201.448912,132.921738 201.009121,134.107908 C200.534762,135.386937 199.915938,136.630558 199.22578,137.835993 C198.79578,138.586852 197.246621,140.162684 197.24762,140.993211 C197.165296,136.095098 198.975812,131.657983 202.419809,127.7355 Z M99.3680307,43.0054816 C98.7464089,43.9398028 98.1949219,46.7736616 97.8536394,47.5189663 C96.9620688,49.4667561 95.8988578,51.3334892 94.6328355,53.1235049 C91.7722965,57.1680066 88.7029517,60.9266404 84.8469387,64.3317143 C86.2672175,63.085837 87.0237138,60.1410677 88.0032026,58.5522183 C89.1283559,56.7269681 90.4213532,54.9730547 91.6476125,53.1960567 C94.0795502,49.6719145 96.3744154,46.2123399 99.3680307,43.0054816 Z M87.4917584,50.7082248 C86.9188913,51.2107066 86.6607314,53.2831189 86.2670976,53.9831221 C85.472237,55.3952784 84.3143141,56.6130375 83.0714703,57.7545999 C83.7352528,57.1726235 83.842553,54.9516363 84.3117165,54.1218036 C85.0620186,52.7952168 86.2055548,51.6739619 87.4917584,50.7082248 Z M122.764906,41.8951095 C122.049172,42.8155452 121.862346,44.8121078 121.337434,45.8885819 C120.563354,47.4758692 119.527518,48.9645693 118.377388,50.3732542 C117.142336,51.8857333 115.738043,53.3032702 114.227248,54.6164922 C113.2036,55.5060327 111.243024,56.5057893 110.46315,57.5267214 C113.964293,51.8147436 118.00913,46.8878178 122.764906,41.8951095 Z M128.390733,47.6728177 C128.186123,47.8927295 127.788693,49.7158968 127.5657,50.0739694 C126.843372,51.2344508 125.56616,52.1809219 124.275361,52.8515919 C124.845431,52.5155626 125.378934,50.859195 125.81333,50.3013446 C126.54465,49.3623371 127.437619,48.4554398 128.390733,47.6728177 Z M177.856378,46.2332376 C177.857178,46.8738803 179.039478,47.9958294 179.146978,48.8048339 C179.312224,50.0477605 178.906202,51.4491555 178.183074,52.546805 C178.314952,52.2364639 177.729296,50.1642252 177.710314,49.7849773 C177.650969,48.6118253 177.77925,47.4056953 177.856378,46.2332376 Z M171.509602,41.9832998 C171.510002,42.3148163 172.426549,43.2758671 172.633357,43.6374111 C173.149677,44.5392749 173.557297,45.4857459 173.696967,46.4924453 C173.85542,47.6336606 173.6616,48.7505762 173.315522,49.8605491 C173.109914,50.5202844 172.131624,51.7949741 172.132423,52.3894475 C171.972572,48.891167 171.198691,45.5298324 171.509602,41.9832998 Z M99.6077106,42.748374 C99.5267106,42.846574 99.4481106,42.945974 99.3681106,43.044574 C99.4471106,42.908174 99.5269106,42.804974 99.6077106,42.748374 Z" id="curvy_Lights" fill-opacity="0.6" fill="#FFFFFF" />
        <g id="curvy_Facial-Hair" transform="translate(49.000000, 72.000000)" />
        <g id="curvy_Accessory" transform="translate(62.000000, 85.000000)"><defs>
        <filter x="-3.2%" y="-10.5%" width="106.3%" height="121.1%" filterUnits="objectBoundingBox" id="sunglasses_filter-1">
            <feOffset dx="0" dy="2" in="SourceAlpha" result="shadowOffsetOuter1" />
            <feColorMatrix values="0 0 0 0 0   0 0 0 0 0   0 0 0 0 0  0 0 0 0.1 0" type="matrix" in="shadowOffsetOuter1" result="shadowMatrixOuter1" />
            <feMerge>
                <feMergeNode in="shadowMatrixOuter1" />
                <feMergeNode in="SourceGraphic" />
            </feMerge>
        </filter>
        <linearGradient x1="50%" y1="0%" x2="50%" y2="70.5058195%" id="sunglasses_linearGradient-2">
            <stop stop-color="#FFFFFF" stop-opacity="0.5" offset="0%" />
            <stop stop-color="#000000" stop-opacity="0.5" offset="100%" />
        </linearGradient>
        <path d="M47.0104611,6.27728008 C49.5212682,6.30134922 50.7082016,6.72633117 51.1359635,9.39189846 C51.5693724,12.0919529 51.1479634,15.1275382 50.648202,17.7869984 C49.8855011,21.8478573 48.6170388,25.8264499 45.6643523,28.794498 C44.1089507,30.3575551 42.2119044,31.6034024 40.1941529,32.4540848 C39.1226305,32.9060098 37.9911085,33.2322006 36.8599395,33.4797175 C36.5292357,33.5519249 33.7060778,33.9478084 35.4375958,33.7466335 C31.3967988,34.2161613 27.0129452,34.1974808 23.6381438,31.5793333 C19.8980507,28.6777448 17.3367734,24.0862872 16.2105455,19.5127916 C15.5516086,16.8368063 14.1670294,10.4365709 16.6968952,8.29693227 C19.5948762,5.84547255 47.0104611,6.27728008 47.0104611,6.27728008 L47.0104611,6.27728008 Z" id="sunglasses_path-3" />
        <linearGradient x1="50%" y1="0%" x2="50%" y2="100%" id="sunglasses_linearGradient-4">
            <stop stop-color="#FFFFFF" stop-opacity="0.5" offset="0%" />
            <stop stop-color="#000000" stop-opacity="0.5" offset="70.5058195%" />
        </linearGradient>
        <path d="M78.9192315,6.27468008 C76.4084239,6.29910846 75.2214902,6.72373117 74.7937283,9.38929846 C74.3603192,12.0893529 74.7817283,15.1249382 75.2811369,17.7843984 C76.0441909,21.8452573 77.3126534,25.8238499 80.2653406,28.791898 C81.8207425,30.3549551 83.7177893,31.6008024 85.7355412,32.4518441 C86.8070638,32.9034098 87.938586,33.2296006 89.0697553,33.4771175 C89.4004591,33.5493249 92.2232647,33.9455676 90.4920992,33.7440335 C94.5328971,34.2135613 98.9167517,34.1948808 102.291554,31.5767333 C106.031648,28.6751448 108.592926,24.0840464 109.719154,19.5105508 C110.378091,16.8342063 111.762317,10.4343302 109.232804,8.29433227 C106.334822,5.84287255 78.9192315,6.27468008 78.9192315,6.27468008 L78.9192315,6.27468008 Z" id="sunglasses_path-5" />
    </defs>
    <g id="sunglasses_Top/_Resources/Sunglasses" stroke="none" stroke-width="1" fill="none" fill-rule="evenodd">
        <g id="sunglasses_Sunglasses" filter="url(#sunglasses_filter-1)" transform="translate(8.000000, 8.000000)">
            <g id="sunglasses_shades">
                <use fill-opacity="0.700000048" fill="#000000" xlink:href="#sunglasses_path-3" />
                <use fill="url(#linearGradient-2)" style="mix-blend-mode: screen;" xlink:href="#sunglasses_path-3" />
            </g>
            <g id="sunglasses_shades">
                <use fill-opacity="0.700000048" fill="#000000" xlink:href="#sunglasses_path-5" />
                <use fill="url(#linearGradient-4)" style="mix-blend-mode: screen;" xlink:href="#sunglasses_path-5" />
            </g>
            <g id="sunglasses_Glasses" fill="#252C2F">
                <path d="M46.2491397,7.27516667 C48.6207695,7.2975 49.7419096,7.69183333 50.1459601,10.1651667 C50.5553446,12.6705 50.1572949,15.4871667 49.6852359,17.9548333 C48.9648125,21.7228333 47.7666627,25.4145 44.9776475,28.1685 C43.5084639,29.6188333 41.7165732,30.7748333 39.8106684,31.5641667 C38.7985419,31.9835 37.7297416,32.2861667 36.6612747,32.5158333 C36.3489024,32.5828333 33.6822357,32.9501667 35.3177735,32.7635 C31.5009631,33.1991667 27.3601122,33.1818333 24.1723805,30.7525 C20.6396056,28.0601667 18.2203032,23.7998333 17.1565036,19.5561667 C16.5340925,17.0731667 15.2262624,11.1345 17.6158944,9.14916667 C20.3532365,6.8745 46.2491397,7.27516667 46.2491397,7.27516667 L46.2491397,7.27516667 Z M22.2178029,0.4905 C16.7774562,0.677833333 13.1466691,1.63383333 10.4633337,7.06916667 C5.54571911,17.0301667 13.9627711,31.9688333 23.352278,36.0395 C34.3293166,40.7991667 46.5921826,35.5318333 52.3955746,26.0058333 C55.4689587,20.9621667 57.0224862,13.3231667 56.9224737,7.50383333 C56.7951245,0.0765 51.6071427,-0.1295 45.5090472,0.0338333333 L22.2178029,0.4905 Z" id="sunglasses_Frame" />
                <path d="M79.6805515,7.27256667 C77.3089217,7.29523333 76.1877816,7.68923333 75.7837311,10.1625667 C75.3743466,12.6679 75.7723963,15.4845667 76.244122,17.9522333 C76.9648787,21.7202333 78.1630285,25.4119 80.9520437,28.1659 C82.4212273,29.6162333 84.213118,30.7722333 86.1190228,31.5619 C87.1311493,31.9809 88.1999496,32.2835667 89.2684165,32.5132333 C89.5807888,32.5802333 92.2471221,32.9479 90.6119177,32.7609 C94.4287281,33.1965667 98.569579,33.1792333 101.757311,30.7499 C105.290086,28.0575667 107.709388,23.7975667 108.773188,19.5539 C109.395599,17.0705667 110.703095,11.1322333 108.313797,9.14656667 C105.576455,6.8719 79.6805515,7.27256667 79.6805515,7.27256667 L79.6805515,7.27256667 Z M103.711555,0.4879 C109.152235,0.675233333 112.783022,1.63156667 115.466357,7.06656667 C120.383639,17.0275667 111.96692,31.9662333 102.577413,36.0372333 C91.6003746,40.7965667 79.3375086,35.5292333 73.5337832,26.0035667 C70.4607325,20.9595667 68.907205,13.3205667 69.0068841,7.50123333 C69.1345667,0.0739 74.3225485,-0.1321 80.420644,0.0315666667 L103.711555,0.4879 Z" id="sunglasses_Frame" />
                <path d="M13.1969483,4.9267 C9.78501392,5.11836667 5.88606327,5.16436667 2.69005822,6.63936667 C-0.69461078,8.20136667 -1.2176675,11.7387 3.04920921,12.2260333 C4.97094906,12.4457 6.89488267,12.0827 8.78716336,11.7450333 C10.336903,11.4683667 12.4419791,11.5580333 13.9064752,10.9657 C16.6355213,9.86236667 16.4603333,4.74003333 13.1969483,4.9267" id="sunglasses_Frame" />
                <path d="M112.73467,4.9267 C116.146606,5.11836667 120.045559,5.16436667 123.241565,6.63936667 C126.626236,8.20136667 127.149293,11.7387 122.882414,12.2260333 C120.960673,12.4457 119.036739,12.0827 117.144457,11.7450333 C115.594717,11.4683667 113.489639,11.5580333 112.025143,10.9657 C109.295782,9.86236667 109.471283,4.74003333 112.73467,4.9267" id="sunglasses_Frame" />
                <path d="M73.1094302,7.01263333 C71.1631869,4.71263333 66.0912197,3.38463333 62.8914864,3.38463333 C59.6914198,3.38463333 54.7681378,4.71263333 52.8222279,7.01263333 C51.8407719,8.1723 51.8074344,9.72396667 53.5083137,10.4509667 C55.6262451,11.3566333 57.5174814,9.7143 59.2126933,8.8553 C61.3809643,7.75663333 64.7120473,7.8773 66.7189648,8.8553 C68.4271783,9.68796667 70.3050797,11.3566333 72.4233444,10.4509667 C74.1242237,9.72396667 74.0908862,8.1723 73.1094302,7.01263333" id="sunglasses_Frame" />
            </g>
        </g>
    </g>
</g>
    </g>
</g>
        </g>
    </g>
</svg>