<svg xmlns="http://www.w3.org/2000/svg" xmlns:ns2="http://design.blush" xmlns:xlink="http://www.w3.org/1999/xlink" width="264px" height="280px" viewBox="0 0 264 280" version="1.1">
    <title id="circle_Title">Avataaar/Circle</title>
    <desc>Created with python_avatars</desc>
    <defs>
        <circle id="circle_path-1" cx="120" cy="120" r="120" />
        <path d="M-3.19744231e-14,160 L-3.19744231e-14,-1.42108547e-14 L264,-1.42108547e-14 L264,160 L252,160 C252,226.27417 198.27417,280 132,280 C65.72583,280 12,226.27417 12,160 L12,160 L-3.19744231e-14,160 Z" id="circle_path-3" />
        <path d="M100,0 C130.927946,-5.68137151e-15 156,25.072054 156,56 L156.000809,62.1660527 C161.675838,63.1185422 166,68.05429 166,74 L166,88 C166,94.0524166 161.519235,99.0582945 155.693975,99.8813638 C153.627928,119.686472 141.237929,136.421678 124.001014,144.610469 L124,163 L128,163 C167.764502,163 200,195.235498 200,235 L200,244 L0,244 L0,235 C-4.86974701e-15,195.235498 32.235498,163 72,163 L76,163 L75.9999836,144.610943 C58.7625487,136.422324 46.3721119,119.686854 44.3051107,99.8809698 C38.480765,99.0582945 34,94.0524166 34,88 L34,74 C34,68.053942 38.3246685,63.1179645 44.0001873,62.1658855 L44,56 C44,25.072054 69.072054,5.68137151e-15 100,0 Z" id="circle_path-5" />
        <path d="M83,36.3476251 C83,52.6289957 105.161905,65.8276544 132.5,65.8276544 C159.838095,65.8276544 182,52.6289957 182,36.3476251 C182,34.9853134 181.844841,33.6445843 181.544472,32.3313638 C210.784239,41.4879251 232,68.792221 232,101.051724 L232,110 L32,110 L32,101.051724 C32,68.3970853 53.7386736,40.8197864 83.5337207,32.0021267 C83.1821692,33.4207025 83,34.871494 83,36.3476251 Z" id="circle_path-7" />
        <rect id="circle_path-9" x="0" y="0" width="264" height="280" />
        <path d="M74,0 C114.869071,0 148,33.1309285 148,74 L148,84.1482318 L148,197.608051 C135.525121,187.236892 119.490913,181 102,181 L102,181 L98,181 L98,162.610951 C115.530782,154.282984 128.048193,137.114792 129.791419,116.867187 C135.569129,116.002364 140,111.018625 140,105 L140,105 L140,92 C140,87.3536213 137.359271,83.3240177 133.496777,81.3301515 C132.723933,81.0500337 131.951808,80.748163 131.180891,80.4262497 C130.794819,80.3202581 130.400778,80.2331546 130,80.1659169 L130,80.1659169 L130.000458,79.9172528 C117.224481,74.2339715 104.877985,63.0706967 96.1104311,47.8848473 C93.1752556,42.8009742 90.8310687,37.5951441 89.0661426,32.3970356 C80.4313947,42.9409152 67.7445474,53.6023901 52.3415164,62.4953343 C42.777598,68.0170651 33.1467898,72.2910056 24,75.2659587 L24.0003852,137.246608 C29.6019576,148.318362 38.7728825,157.277529 50,162.610951 L50,162.610951 L50,181 L46,181 C38.3273639,181 30.9350359,182.200142 24.0004995,184.422941 L24,230 C24,244.105888 13.5691766,255.775526 0,257.716445 L0,74 C0,33.1309285 33.1309285,0 74,0 Z" id="circle_path-11" />
    </defs>
    <g id="circle_Avataaar/Circle" stroke="none" stroke-width="1" fill="none" fill-rule="evenodd">
        <g id="circle_Circle" transform="translate(12.000000, 40.000000)">
            <mask id="circle_mask-2" fill="white">
                <use xlink:href="#circle_path-1" />
            </mask>
            <use id="circle_Background-Color" fill="#FFFFFF" xlink:href="#circle_path-1" />
            <g id="circle_Fabric-Color" mask="url(#circle_mask-2)" fill="">
                <rect id="circle_ðŸ–Color" x="0" y="0" width="240" height="240" />
            </g>
        </g>
        <mask id="circle_mask-4" fill="white">
            <use xlink:href="#circle_path-3" />
        </mask>
        <g id="circle_Mask" />
        <g id="circle_Avataaar" mask="url(#circle_mask-4)">
            <g id="circle_Body" transform="translate(32.000000, 36.000000)">
                <mask id="circle_mask-6" fill="white">
                    <use xlink:href="#circle_path-5" />
                </mask>
                <use fill="#D0C6AC" xlink:href="#circle_path-5" />
                <g id="circle_Skin-Color" mask="url(#circle_mask-6)" fill="#EDB98A">
                    <g transform="translate(-32.000000, 0.000000)" id="circle_Color">
                        <rect x="0" y="0" width="264" height="244" />
                    </g>
                </g>
                <path d="M44,94 C44,124.927946 69.072054,150 100,150 C130.927946,150 156,124.927946 156,94 L156,94 L156,102 C156,132.927946 130.927946,158 100,158 C69.072054,158 44,132.927946 44,102 Z" id="circle_Neck-Shadow" fill-opacity="0.100000001" fill="#000000" mask="url(#circle_mask-6)" />
            </g>
            <g id="circle_Clothing" transform="translate(0.000000, 170.000000)">
                
            <g id="astronaut_suit_Clothing/Astronaut suit" stroke="none" stroke-width="1" fill="none" fill-rule="evenodd"><g id="astronaut_suit_Astronaut-suit" transform="translate(32.000000, 22.000000)"><path d="M127.9997,6.7405 L123.9997,6.7405 L124.0007,0.0005 L75.9997,0.0005 L75.9997,6.7405 L71.9997,6.7405 C32.6327,6.7405 0.6457,38.3345 0.0097,77.5495 L-0.0003,78.7405 L-0.0003,87.7405 L199.9997,87.7405 L199.9997,78.7405 C199.9997,38.9755 167.7647,6.7405 127.9997,6.7405" id="astronaut_suit_Fill-1" fill="#B0DBE2" /><path d="M180.2253,29.2054 C168.8273,38.7164 145.7303,58.8474 145.7303,58.8474 L145.7303,87.7404 L199.9993,87.7404 L199.9993,78.7404 C199.9993,59.5424 192.4713,42.1134 180.2253,29.2054" id="astronaut_suit_Fill-4" fill="#D4EEF4" /><path d="M0.0095,77.5491 L0.0005,78.7401 L0.0005,87.7401 L54.3105,87.7401 L54.3105,58.8471 C54.3105,58.8471 31.1785,38.6861 19.7905,29.1841 C7.7865,41.8261 0.3135,58.8131 0.0095,77.5491" id="astronaut_suit_Fill-6" fill="#D4EEF4" /><path d="M121.8503,50.7298 L78.1893,50.7298 C73.4013,50.7298 69.5203,54.6118 69.5203,59.3998 L69.5203,87.7738 L130.5203,87.7738 L130.5203,59.3998 C130.5203,54.6118 126.6383,50.7298 121.8503,50.7298" id="astronaut_suit_Fill-8" fill="#60ADE6" ns2:color="Top-500" /><path d="M83.6935,58.473 C80.9605,58.473 78.7445,60.689 78.7445,63.422 C78.7445,66.156 80.9605,68.371 83.6935,68.371 C86.4265,68.371 88.6425,66.156 88.6425,63.422 C88.6425,60.689 86.4265,58.473 83.6935,58.473" id="astronaut_suit_Fill-10" fill="#EBFCFF" /><path d="M100.0202,58.473 C97.2872,58.473 95.0712,60.689 95.0712,63.422 C95.0712,66.156 97.2872,68.371 100.0202,68.371 C102.7532,68.371 104.9692,66.156 104.9692,63.422 C104.9692,60.689 102.7532,58.473 100.0202,58.473" id="astronaut_suit_Fill-12" fill="#EBFCFF" /><path d="M116.3464,58.473 C113.6144,58.473 111.3974,60.689 111.3974,63.422 C111.3974,66.156 113.6144,68.371 116.3464,68.371 C119.0804,68.371 121.2964,66.156 121.2964,63.422 C121.2964,60.689 119.0804,58.473 116.3464,58.473" id="astronaut_suit_Fill-14" fill="#EBFCFF" /><path d="M117.8112,87.7737 L82.2292,87.7737 C80.3042,87.7737 78.7442,86.2137 78.7442,84.2897 L78.7442,78.4967 C78.7442,76.5717 80.3042,75.0107 82.2292,75.0107 L117.8112,75.0107 C119.7362,75.0107 121.2962,76.5717 121.2962,78.4967 L121.2962,84.2897 C121.2962,86.2137 119.7362,87.7737 117.8112,87.7737" id="astronaut_suit_Fill-16" fill="#B0DBE2" /><path d="M164.361,16.6038 C153.687,10.3438 141.267,6.7408 128,6.7408 L124,6.7408 L124.001,-0.0002 L76,-0.0002 L76,6.7408 L72,6.7408 C59.006,6.7408 46.827,10.1998 36.303,16.2208 C95.548,34.5108 143.322,23.6098 164.361,16.6038" id="astronaut_suit_Fill-18" fill="#60ADE6" ns2:color="Top-500" /></g></g></g>
            <g id="circle_Face" transform="translate(76.000000, 82.000000)" fill="#000000">
                <g id="circle_Mouth" transform="translate(2.000000, 52.000000)">    
                    
                <defs>
        <path d="M29,15.6086957 C30.410031,25.2313711 41.062182,33 54,33 C66.9681454,33 77.6461342,25.183301 79,14.7391304 C79.1012093,14.3397326 78.775269,13 76.826087,13 C56.838426,13 41.7395748,13 31.173913,13 C29.3833142,13 28.870211,14.2404669 29,15.6086957 Z" id="tongue_path-1" />
    </defs>
    <g id="tongue_Mouth/Tongue" stroke="none" stroke-width="1" fill="none" fill-rule="evenodd">
        <mask id="tongue_mask-2" fill="white">
            <use xlink:href="#tongue_path-1" />
        </mask>
        <use id="tongue_Mouth" fill-opacity="0.699999988" fill="#000000" xlink:href="#tongue_path-1" />
        <path d="M44,2 L65,2 C67.7614237,2 70,4.23857625 70,7 L70,13 C70,15.7614237 67.7614237,18 65,18 L44,18 C41.2385763,18 39,15.7614237 39,13 L39,7 C39,4.23857625 41.2385763,2 44,2 Z" id="tongue_Teeth" fill="#FFFFFF" mask="url(#tongue_mask-2)" />
        <path d="M59.5,20 C63.0898509,20 66,21.5670034 66,23.5 C66,23.5829439 65.9946418,23.6652139 65.9841015,23.7467151 C65.9945755,23.8293228 66,23.9140279 66,24 L66,33 C66,39.0751322 61.0751322,44 55,44 L54,44 C47.9248678,44 43,39.0751322 43,33 L43,24 C43,23.9140279 43.0054245,23.8293228 43.0159499,23.7462082 C43.0053582,23.6652139 43,23.5829439 43,23.5 C43,21.5670034 45.9101491,20 49.5,20 C51.5110191,20 53.3087347,20.4917558 54.5010337,21.2641296 C55.6909749,20.4918353 57.4888185,20 59.5,20 Z" id="tongue_Tongue" fill="#FF4F6D" />
    </g>
</g>
                <g id="circle_Nose" transform="translate(28.000000, 40.000000)" fill-opacity="0.16">
                    
                <g id="wide_Nose/Wide" stroke="none" stroke-width="1" fill="none" fill-rule="evenodd"><path d="M13,6 C13,12.627417 16.8281211,18 28,18 C39.1718789,18 43,12.627417 43,6 C39.0361818,6 32.8972468,9 27.83815,9 C23.0794079,9 17.1013384,6 13,6 Z" id="wide_Nose" fill-opacity=".16" fill="#000" /></g></g>
                <g id="circle_Eyes" transform="translate(0.000000, 8.000000)">
                    
                <g id="x_dizzy_Eyes/X-Dizzy-ðŸ˜µ" stroke="none" stroke-width="1" fill="none" fill-rule="evenodd" fill-opacity="0.599999964">
        <path d="M23.5,13.3 L29,18.799 L34.5,13.3 C34.9,12.9 35.6,12.9 36.1,13.3 L37.7,14.9 C38.1,15.3 38.1,16 37.7,16.5 L32.2,22 L37.7,27.5 C38.1,27.9 38.1,28.6 37.7,29.1 L36.1,30.7 C35.7,31.1 35,31.1 34.5,30.7 L29,25.2 L23.5,30.7 C23.1,31.1 22.4,31.1 21.9,30.7 L20.3,29.1 C19.9,28.7 19.9,28 20.3,27.5 L25.799,22 L20.3,16.5 C19.9,16 19.9,15.3 20.3,14.9 L21.9,13.3 C22.3,12.9 23,12.9 23.5,13.3 Z" id="x_dizzy_Eye" fill="#000000" fill-rule="nonzero" />
        <path d="M77.5,13.3 L83,18.799 L88.5,13.3 C88.9,12.9 89.6,12.9 90.1,13.3 L91.7,14.9 C92.1,15.3 92.1,16 91.7,16.5 L86.2,22 L91.7,27.5 C92.1,27.9 92.1,28.6 91.7,29.1 L90.1,30.7 C89.7,31.1 89,31.1 88.5,30.7 L83,25.2 L77.5,30.7 C77.1,31.1 76.4,31.1 75.9,30.7 L74.3,29.1 C73.9,28.7 73.9,28 74.3,27.5 L79.799,22 L74.3,16.5 C73.9,16 73.9,15.3 74.3,14.9 L75.9,13.3 C76.3,12.9 77,12.9 77.5,13.3 Z" id="x_dizzy_Eye" fill="#000000" fill-rule="nonzero" />
    </g>
</g>
                <g id="circle_Eyebrow" fill-opacity="0.599999964">
                    
                </g>
            </g>
            <g id="circle_Top">
                
            <defs>
        <path d="M74,0 L75.2237253,0.00991388577 C115.528377,0.663392385 148,33.5396192 148,74 L148,74 L148,88.2807758 L148,88.2807758 L148,170 C148,178.558333 146.547144,186.777334 143.874615,194.42382 C132.269342,186.111725 118.092027,181.16399 102.767191,181.004003 L102,181 L98,181 L98.0010136,162.610469 C115.531251,154.282329 128.048207,137.114429 129.791415,116.867236 C135.471002,116.017289 139.849484,111.186467 139.9962,105.304975 L140,105 L140,92 C140,90.3102888 139.650764,88.7021461 139.020535,87.243816 C126.063853,85.0565575 111.478255,79.7683737 97.1489304,71.4953343 C85.0171781,64.4910638 74.6464677,56.2579416 66.6695083,47.752196 C70.0963393,55.6604321 74.2459335,62.5880409 79.118291,68.5350224 C66.4431108,63.0120855 57.8126345,54.1324394 53.2268621,41.8960843 C52.8490267,42.8180234 52.455505,43.738913 52.0461952,44.6582378 C42.2070931,66.757223 25.5916248,82.6815236 8.46206596,88.6932683 C8.18761967,89.6503142 8.02971161,90.6562836 8.00379986,91.6950252 L8,92 L8,105 C8,111.018777 12.4310943,116.002616 18.2090181,116.867253 C19.9518263,137.114813 32.4692242,154.28298 49.9999836,162.610943 L50,181 L46,181 C30.3812644,181 15.9240795,185.97319 4.12558428,194.42243 C1.45285556,186.777334 1.04809353e-15,178.558333 0,170 L0,74 C-5.00501776e-15,33.1309285 33.1309285,7.50752664e-15 74,0 Z" id="straight_strand_path-1" />
    </defs>
    <g id="straight_strand_Top/Long-Hair/Straight-+-Strand" stroke="none" stroke-width="1" fill="none" fill-rule="evenodd" transform="translate(-1 0)">
        <g id="straight_strand_Hair" transform="translate(59.000000, 18.000000)">
            <mask id="straight_strand_mask-2" fill="white">
                <use xlink:href="#straight_strand_path-1" />
            </mask>
            <use fill="#ECC797" xlink:href="#straight_strand_path-1" />
            <g id="straight_strand_Hair-Color" mask="url(#straight_strand_mask-2)" fill="#D6B370">
                <g transform="translate(-58.000000, -18.000000)" id="straight_strand_Color">
                    <rect x="0" y="0" width="264" height="280" />
                </g>
            </g>
        </g>
        <path d="M111.046195,62.6582378 C111.455505,61.738913 111.849027,60.8180234 112.226862,59.8960843 C116.23201,70.5831416 123.322468,78.7096926 133.498237,84.2757375 C134.957704,86.4713573 136.498035,88.5574103 138.118291,90.5350224 C125.443111,85.0120855 116.812635,76.1324394 112.226862,63.8960843 C111.849027,64.8180234 111.455505,65.738913 111.046195,66.6582378 C99.5895621,92.3902571 78.9453743,109.750496 59,112.837908 L59,112.837908 L59,108.837908 C78.9453743,105.750496 99.5895621,88.3902571 111.046195,62.6582378 Z M207,110.280776 C192.046922,109.412723 173.901259,103.744646 156.14893,93.4953343 C145.874756,87.5635371 136.86362,80.7503942 129.499826,73.6367126 C128.136723,71.1264817 126.859535,68.498468 125.669508,65.752196 C133.646468,74.2579416 144.017178,82.4910638 156.14893,89.4953343 C173.901259,99.7446457 192.046922,105.412723 207,106.280776 Z" id="straight_strand_Shadow" fill-opacity="0.16" fill="#000000" />
        <g id="straight_strand_Facial-Hair" transform="translate(49.000000, 72.000000)"><g id="einstien_mustache_Facial Hair/Einstien Mustache" stroke="none" stroke-width="1" fill="none" fill-rule="evenodd">
        <g id="einstien_mustache_mustache" transform="translate(52.000000, 65.000000)">
            <path d="M0.1095,17.4004 C0.1095,17.4004 5.0135,0.0004 30.2595,0.0004 C55.5055,0.0004 62.9515,16.1414 63.3155,17.5484 C63.6785,18.9564 63.1335,21.7704 59.3185,20.2144 C55.5055,18.6594 54.7785,17.0494 52.9625,18.8544 C51.1465,20.6594 50.6925,23.4834 47.9675,22.6194 C45.2435,21.7564 44.9715,16.6794 41.7015,18.8544 C38.4325,21.0294 38.5235,23.5484 35.5265,22.0254 C33.2325,20.8584 31.5305,17.7164 29.9865,18.8544 C28.4425,19.9924 28.7155,22.8484 25.8095,22.6054 C22.9035,22.3624 21.6015,19.4394 20.1495,19.4094 C16.6075,19.3354 17.2735,21.9924 14.7305,22.2144 C12.1875,22.4374 10.7345,18.1764 8.5545,18.1294 C6.3755,18.0824 -0.9805,24.4374 0.1095,17.4004" id="einstien_mustache_Facial-Hair-Color" fill="#4A312C" ns2:color="Hair-500" />
            <path d="M21.2369,19.8873 C22.0519,14.8863 23.6129,9.9273 23.8379,4.8753 C23.9079,3.3003 20.9079,3.3033 20.8379,4.8753 C20.6149,9.8823 19.0779,14.7933 18.2569,19.7463 C18.7199,19.5293 19.3159,19.3913 20.1489,19.4093 C20.5119,19.4173 20.8649,19.6053 21.2369,19.8873" id="einstien_mustache_Fill-4" fill-opacity=".16" fill="#000" />
            <path d="M8.5548,18.1294 C8.7758,18.1344 8.9868,18.1914 9.1948,18.2734 C9.5518,16.4414 10.1578,14.6404 11.0478,12.9324 C11.6798,11.7214 12.4528,10.5554 13.3278,9.4514 C14.2368,8.3034 15.2668,7.1924 15.5198,5.8044 C15.6388,5.1514 15.3198,4.4894 14.4718,4.2994 C13.7648,4.1414 12.7468,4.4964 12.6268,5.1534 C12.3818,6.5004 11.2428,7.5354 10.3928,8.6614 C9.4768,9.8754 8.7128,11.1554 8.0568,12.4754 C7.0118,14.5794 6.3628,16.7924 6.0468,19.0424 C7.0728,18.5374 7.9888,18.1174 8.5548,18.1294" id="einstien_mustache_Fill-6" fill-opacity=".16" fill="#000" />
            <path d="M32.9596,20.0132 C33.0526,14.9272 32.7116,9.8432 31.9156,4.7922 C31.8126,4.1322 31.3006,3.5762 30.4156,3.56915338 C29.6846,3.5632 28.8126,4.1372 28.9156,4.7922 C29.6516,9.4612 30.0036,14.1592 29.9796,18.8612 C29.9816,18.8592 29.9846,18.8562 29.9866,18.8542 C30.8936,18.1862 31.8556,18.9962 32.9596,20.0132" id="einstien_mustache_Fill-8" fill-opacity=".16" fill="#000" />
            <path d="M43.4313,18.3545 C43.4523,16.9565 43.4323,15.5585 43.2663,14.1635 C42.8603,10.7705 41.6363,7.4605 40.6263,4.1635 C40.1593,2.6365 37.2643,3.2835 37.7343,4.8135 C38.7133,8.0145 39.9793,11.2575 40.3093,14.5575 C40.4863,16.3285 40.4483,18.1035 40.4013,19.8785 C40.7713,19.5395 41.1923,19.1935 41.7023,18.8545 C42.3993,18.3905 42.9543,18.2705 43.4313,18.3545" id="einstien_mustache_Fill-10" fill-opacity=".16" fill="#000" />
            <path d="M47.0817,7.9122 C49.9427,11.4532 51.3527,15.5112 52.2867,19.6402 C52.4927,19.3672 52.7147,19.1012 52.9627,18.8542 C53.7177,18.1042 54.2857,17.9492 54.9647,18.1302 C53.9717,14.0942 52.4777,10.1482 49.6727,6.6772 C48.6137,5.3682 46.0157,6.5922 47.0817,7.9122" id="einstien_mustache_Fill-12" fill-opacity=".16" fill="#000" />
        </g>
    </g>
</g>
        <g id="straight_strand_Accessory" transform="translate(62.000000, 85.000000)" />
    </g>
</g>
        </g>
    </g>
</svg>